<svg version="1.2" baseProfile="tiny-ps" xmlns="http://www.w3.org/2000/svg" viewBox="0 0 1000 1000" width="1000" height="1000">
	<title>Artboard 1</title>
	<style>
		tspan { white-space:pre }
		.shp0 { fill: #f2f2f2 } 
		.shp1 { fill: #000000 } 
	</style>
	<g id="Background">
		<path id="Path 1" className="shp0" d="M476.83 248.99C385.17 249.27 309.88 249.72 309.53 250C309.18 250.28 308.44 362.1 307.89 498.5C307.33 634.9 307.13 747.51 307.44 748.75C307.83 750.33 308.74 751 310.5 751C312.45 751 319.09 744.81 340.78 722.75C356.07 707.21 376.43 686.53 386.03 676.79L403.5 659.07C408.93 663.91 423.32 677.73 439 692.91C454.68 708.08 473.57 726.43 481 733.67C488.43 740.92 495.74 747.79 497.25 748.93C498.88 750.16 500.91 750.81 502.25 750.53C503.49 750.27 507.2 747.5 510.5 744.37C513.8 741.25 521.45 733.89 527.5 728.03C533.55 722.17 550.42 705.95 565 691.99C579.58 678.03 592.96 665.24 594.76 663.56L598.01 660.5C635.59 697.75 655.85 717.78 667.28 729.03C678.7 740.29 688.95 749.95 690.04 750.5C691.37 751.17 692.37 751.17 693.03 750.5C693.69 749.85 694.03 717.55 694.03 657.5C694.02 606.9 693.68 494.66 693.26 408.07C692.66 284.34 692.23 250.36 691.25 249.32C690.27 248.29 684.97 248.05 666.75 248.24C653.96 248.38 568.5 248.72 476.83 248.99Z" />
		<path id="Path 2" className="shp1" d="M498.33 270.71C497.69 272.25 496.87 275.07 496.5 277C496.13 278.93 495.02 283.2 494.04 286.5C493.06 289.8 491.47 294.07 490.51 296C489.55 297.93 485.65 302.65 481.86 306.5C478.06 310.35 475.31 313.82 475.73 314.21C476.15 314.6 479.2 315.2 482.5 315.54C485.8 315.88 489.77 316.69 491.33 317.33C493.04 318.04 494.38 319.49 494.71 321C495.01 322.38 494.69 325.3 494.01 327.5C493.32 329.7 490.79 334.54 488.38 338.25C485.97 341.96 482.54 346.07 480.75 347.37C478.96 348.68 476.38 350.31 475 351C473.63 351.69 469.13 352.6 465 353.01C460.59 353.46 455.65 353.36 453 352.77C450.52 352.22 446.02 350.68 443 349.35C438.53 347.39 436.79 345.87 433.72 341.22C431.1 337.25 429.95 334.43 429.99 332C430.01 330.07 429.58 327.04 429.02 325.25C428.46 323.46 427.1 321.55 426 321C424.9 320.45 422.99 319.99 421.75 319.97C420.51 319.95 418.77 320.74 417.87 321.72C416.97 322.7 415.96 324.51 415.62 325.75C415.28 326.99 415.39 328.79 415.87 329.75C416.35 330.71 418.26 333.03 420.12 334.91L423.5 338.31C422.43 350.08 421.26 355.52 420.22 358C419.17 360.48 416.9 363.74 415.16 365.25C413.42 366.76 410.31 368.5 408.25 369.12C406.19 369.74 402.81 369.96 400.75 369.62C397.55 369.09 394.38 366.4 379.25 351.35C369.49 341.64 360.15 332.86 358.5 331.85C356.85 330.84 354.71 330.01 353.75 330C352.79 330 352 330.68 352 331.5C352 332.32 358.64 341.85 366.75 352.67C374.86 363.49 383.07 373.62 385 375.19C386.93 376.77 390.3 378.93 392.5 380.01C395.23 381.35 398.56 381.97 403 381.96C406.57 381.96 411.3 381.52 413.5 380.99C415.71 380.46 418.99 378.57 420.83 376.77C422.66 374.97 424.96 371.93 425.93 370C426.89 368.07 428.55 365.07 429.59 363.32C430.83 361.25 432.55 359.93 434.5 359.55C436.15 359.24 438.74 358.98 440.25 358.99C441.76 358.99 443.23 359.45 443.5 360C443.77 360.55 446.59 362.24 449.75 363.75C454.92 366.22 456.56 366.5 466 366.46C475.83 366.43 476.82 366.24 481.44 363.46C484.16 361.83 488.21 358.08 490.44 355.13C492.67 352.17 495.29 349.36 496.25 348.88C497.21 348.4 499.8 348 502 348C505.61 348 506.57 348.6 511.75 354.13C515.39 358.01 519.43 361.13 522.75 362.63C525.64 363.93 531.49 365.53 535.75 366.17C541.62 367.05 544.23 367.05 546.5 366.18C548.15 365.54 550.06 365.02 550.75 365.01C551.44 365.01 553.91 363.72 556.25 362.16C558.59 360.6 561.85 358.99 563.5 358.59C565.52 358.09 566.99 358.29 568 359.2C568.83 359.94 570.85 363.18 572.5 366.4C574.41 370.14 577.13 373.5 580 375.68C582.48 377.57 586.3 379.62 588.5 380.24C591.55 381.1 594.4 381.06 600.5 380.07C605.16 379.31 609.96 377.84 612 376.54C613.92 375.31 617.84 371.65 620.69 368.4C623.54 365.16 632.21 355.07 639.94 346C650.61 333.47 654 328.84 654 326.75C654 324.41 653.59 324 651.25 324.02C649.12 324.03 646.72 325.9 640.64 332.27C636.31 336.8 629.07 344.55 624.55 349.5C620.02 354.45 614.56 360.42 612.41 362.77C609.09 366.4 607.75 367.13 603.5 367.64C600.75 367.96 595.58 367.72 592 367.1C588.42 366.47 584.83 365.34 584 364.59C583.17 363.84 581.43 360.37 580.13 356.86C578.36 352.12 577.9 349.35 578.33 346C578.75 342.77 579.77 340.66 581.98 338.5C583.99 336.53 585.26 334.12 585.65 331.5C586.06 328.78 585.73 326.46 584.62 324.25C583.44 321.88 582.32 321 580.5 321C579.13 321 576.99 321.52 575.75 322.16C574.51 322.8 572.97 324.04 572.32 324.91C571.67 325.79 570.84 328.75 570.47 331.5C569.87 336 569.14 337.15 563.15 343C558.52 347.53 554.98 350.03 551.5 351.26C548.55 352.29 543.83 352.98 540 352.93C536.42 352.88 532.03 352.32 530.23 351.67C528.43 351.03 524.12 348.02 520.65 345C517.18 341.98 512.93 337.7 511.2 335.5C508.45 332 508.05 330.72 508.03 325.25C508 319.58 508.25 318.81 510.75 316.97C512.93 315.35 514.99 314.94 520.75 314.97C524.74 314.98 528.22 314.66 528.48 314.25C528.75 313.84 525.37 309.79 520.98 305.25C516.59 300.71 512.25 295.54 511.32 293.75C510.4 291.96 508.8 287.57 507.77 284C506.74 280.43 505.33 275.48 504.64 273C503.76 269.86 502.79 268.41 501.43 268.21C500.11 268.02 499.12 268.81 498.33 270.71ZM494.27 373.15C490.55 376.53 485.25 380.35 482.5 381.64C478.89 383.33 475.7 383.98 471 384C467.43 384 461.8 383.5 458.5 382.88C455.2 382.26 450.36 380.46 447.75 378.87C445.14 377.29 442.32 376.23 441.5 376.5C440.68 376.77 439.1 378.8 438 381C436.85 383.29 433.55 386.88 430.25 389.41C427.09 391.84 422.81 394.54 420.75 395.41C418.41 396.4 414.08 397 409.25 397C404.99 397.01 399.1 396.44 396.16 395.75C391.55 394.67 390.74 394.71 390.25 396C389.94 396.82 389.87 402.13 390.09 407.78C390.4 415.49 390.88 418.3 392 419.03C392.95 419.64 433.17 419.9 501.17 419.75C560.38 419.61 609.21 419.12 609.67 418.67C610.13 418.21 610.65 413.03 610.83 407.17C611.07 399.05 610.83 396.34 609.83 395.85C609.1 395.49 606.48 396.32 604 397.69C599.99 399.91 598.74 400.12 592.5 399.57C588.19 399.2 583.58 398.03 580.5 396.53C577.75 395.19 571.67 390.45 567 386C561.7 380.95 557.94 378.09 557 378.41C556.17 378.7 552.13 380.12 548 381.58C541.46 383.89 539.47 384.16 532.5 383.68C528.1 383.37 522.92 382.67 521 382.12C519.08 381.56 513.8 377.94 509.27 374.06L501.04 367L494.27 373.15ZM502 456.46C498.43 457.2 492.8 458.7 489.5 459.79C486.2 460.89 480.57 462.91 477 464.28C473.43 465.66 466.23 467.8 461 469.05C455.77 470.29 450.95 471.8 450.28 472.41C449.61 473.01 449.27 474.51 449.53 475.75C449.86 477.32 450.81 478.08 452.69 478.25C454.85 478.45 455.56 479.19 456.27 482C456.76 483.93 457.01 501.93 456.83 522C456.54 554.06 456.29 558.93 454.78 562C453.83 563.92 452.03 566.73 450.78 568.22C448.62 570.8 448.59 571.04 450.21 572.72C451.84 574.4 452.29 574.41 458.71 572.85C462.45 571.95 470.57 570.82 476.76 570.35L488.02 569.5C488 565.24 487.44 563.95 486.75 563.88C486.06 563.82 485.16 563.82 484.75 563.88C484.34 563.95 483.21 562.78 482.25 561.29C480.66 558.84 480.5 555.03 480.5 519.54C480.5 486.3 480.73 479.98 482.06 477C482.92 475.07 485.17 472.25 487.06 470.73C489.61 468.67 492.43 467.66 498 466.79C503.68 465.91 506.84 465.9 511 466.77C515.47 467.71 517.24 468.73 520.43 472.21C522.59 474.57 525.03 478.07 525.84 480C526.69 482.02 527.53 488.16 527.82 494.5C528.26 504.22 528.04 506.37 525.91 512.97C524.06 518.71 522.46 521.52 519 525.08C515.7 528.48 513.03 530.16 509 531.37C505.98 532.28 500.69 533.02 497.25 533.01C492.58 533 490.87 533.38 490.5 534.5C490.23 535.33 490 536.9 490 538C490 539.2 491 540.4 492.5 541C493.88 541.55 498.82 542 503.5 542C509.57 542 513.79 541.39 518.25 539.86C521.69 538.69 526.3 536.82 528.5 535.71C530.7 534.6 535.22 530.95 538.54 527.6C541.93 524.18 545.72 519.08 547.18 516C548.6 512.98 550.35 508.48 551.07 506C551.78 503.52 552.35 497 552.33 491.5C552.3 483.44 551.83 480.33 549.94 475.5C548.65 472.2 546.23 467.75 544.55 465.62C542.87 463.49 539.02 460.35 536 458.65C530.88 455.78 529.73 455.55 519.5 455.34C513.27 455.22 505.68 455.7 502 456.46ZM403.5 459.66C400.2 461.03 390.3 466.2 381.5 471.14C370.17 477.51 364.89 481.06 363.43 483.32C362.29 485.07 360.16 489.88 358.7 494C357.24 498.13 355.59 504.2 355.03 507.5C354.47 510.8 353.98 518.23 353.93 524C353.87 531.71 354.41 536.62 355.96 542.5C357.12 546.9 359.13 552.3 360.41 554.5C361.7 556.7 364.05 560.03 365.63 561.9C367.21 563.77 370.3 566.5 372.5 567.97C374.7 569.43 378.52 571.39 381 572.31C383.87 573.38 388.49 573.99 393.75 573.99C399.8 574 404.07 573.34 409.75 571.52C414.01 570.15 420.2 567.44 423.5 565.49C426.8 563.53 429.61 561.95 429.75 561.97C429.89 561.99 432.81 559.7 436.25 556.88C439.69 554.07 442.84 551.14 443.25 550.38C443.71 549.54 443.22 548.22 442 547L440 545C434.19 549.45 429.13 552.49 425 554.62C417.84 558.31 417.07 558.49 408 558.49C400.16 558.49 397.8 558.12 394.5 556.33C392.3 555.14 388.86 552.44 386.86 550.33C384.85 548.23 382.32 544.7 381.23 542.5C380.14 540.3 378.52 535.91 377.63 532.75C376.73 529.59 376 526.1 376 525C376 523.46 376.86 522.87 379.75 522.42C381.81 522.1 393.85 522.16 406.5 522.55C428.23 523.22 429.59 523.15 431.19 521.38C432.12 520.35 434.24 516.8 435.91 513.5C438.56 508.25 438.76 507.31 437.49 506C436.21 504.67 435.46 504.69 430.77 506.24C427.87 507.2 422.35 508.43 418.5 508.98C414.65 509.53 403.63 510.28 394 510.66C378.19 511.28 376.43 511.19 375.75 509.67C375.34 508.75 375.48 504.96 376.06 501.25C376.64 497.54 378.33 491.84 379.81 488.59C381.37 485.15 384.21 481.17 386.57 479.09C389.51 476.5 392.3 475.15 396.57 474.24C399.83 473.55 403.74 472.99 405.25 472.99C406.76 473 410.36 474.05 413.25 475.34C416.14 476.62 420.75 479.58 423.5 481.92C426.55 484.51 429.27 486.04 430.46 485.83C431.62 485.64 434.29 482.57 436.96 478.34C439.46 474.41 442.4 469.98 443.5 468.49C445.06 466.39 445.25 465.43 444.39 464.15C443.64 463.03 441.71 462.46 438.39 462.37C435.7 462.3 430.35 461.07 426.5 459.64C422.2 458.05 417.57 457.07 414.5 457.11C411.59 457.15 407 458.21 403.5 459.66ZM608 457.96C607.17 458.42 603.35 460.18 599.5 461.87C595.65 463.55 587.33 467.8 581 471.32C574.67 474.83 567.92 479.25 566 481.14C563.95 483.15 561.35 487.47 559.73 491.54C558.21 495.37 556.32 502.1 555.52 506.5C554.72 510.9 554.06 518.33 554.04 523C554.03 527.67 554.47 534.42 555.03 538C555.59 541.58 557.61 547.76 559.52 551.75C561.46 555.8 564.99 560.99 567.5 563.5C569.98 565.98 574.81 569.34 578.25 570.97C583.71 573.56 585.64 573.94 593.5 573.98C600.41 574.01 604.12 573.48 609.5 571.65C613.35 570.35 619.2 567.93 622.5 566.27C625.8 564.61 631.99 560.5 636.25 557.13C640.51 553.76 644 550.77 644 550.5C644 550.23 643.55 549.1 643 548C642.45 546.9 641.44 545.98 640.75 545.96C640.06 545.94 636.8 547.7 633.5 549.86C630.2 552.02 624.58 555.02 621 556.51C615.29 558.9 613.53 559.18 606.5 558.79C601.11 558.49 597.19 557.68 594.5 556.29C592.3 555.17 588.81 552.39 586.75 550.12C584.69 547.85 582.33 544.65 581.5 543C580.67 541.35 579.28 537.41 578.4 534.25C577.52 531.09 576.62 527.49 576.4 526.25C576.1 524.53 576.65 523.75 578.75 522.94C580.51 522.26 590.48 521.99 606.42 522.19L631.34 522.5C639.27 508.26 639.4 507.76 637.77 506.18C636.16 504.61 635.68 504.62 630.27 506.4C627.1 507.44 621.58 508.67 618 509.12C614.42 509.58 603.51 510.3 593.75 510.72L575.99 511.5C575.98 502.98 576.94 497.57 578.11 494C579.29 490.43 581.22 485.82 582.4 483.76C583.59 481.7 586.35 478.88 588.53 477.5C590.71 476.11 595.42 474.43 599 473.78C604.56 472.76 606.3 472.82 611 474.24C614.72 475.36 618.36 477.54 622.25 480.95C625.41 483.73 628.79 485.99 629.75 485.98C630.71 485.98 631.98 485.64 632.57 485.23C633.15 484.83 635.07 482.02 636.83 479C638.58 475.98 641.48 471.55 643.26 469.16C646.44 464.9 646.47 464.8 644.5 463.38C643.31 462.52 641.48 462.18 640 462.54C638.46 462.91 633.96 461.97 628.25 460.07C622.85 458.28 617.02 457.02 614.25 457.06C611.64 457.09 608.83 457.5 608 457.96Z" />
	</g>
</svg>